<svg xmlns="http://www.w3.org/2000/svg" viewBox="0 0 100 100" width="100" height="100">
  <defs>
    <linearGradient id="lc-purple-cyan" x1="0%" y1="0%" x2="100%" y2="100%">
      <stop offset="0%" stop-color="#7c3aed"/>
      <stop offset="45%" stop-color="#6366f1"/>
      <stop offset="100%" stop-color="#22d3ee"/>
    </linearGradient>
    <linearGradient id="lc-glow" x1="0%" y1="100%" x2="100%" y2="0%">
      <stop offset="0%" stop-color="#6d28d9"/>
      <stop offset="100%" stop-color="#06b6d4"/>
    </linearGradient>
    <linearGradient id="lc-bolt" x1="0%" y1="0%" x2="100%" y2="100%">
      <stop offset="0%" stop-color="#38bdf8"/>
      <stop offset="100%" stop-color="#22d3ee"/>
    </linearGradient>
    <radialGradient id="lc-bg" cx="50%" cy="50%" r="70%">
      <stop offset="0%" stop-color="#12122a"/>
      <stop offset="100%" stop-color="#060618"/>
    </radialGradient>
    <filter id="glow" x="-30%" y="-30%" width="160%" height="160%">
      <feGaussianBlur stdDeviation="1.2" result="b"/>
      <feMerge><feMergeNode in="b"/><feMergeNode in="SourceGraphic"/></feMerge>
    </filter>
  </defs>
  <rect width="100" height="100" rx="22" fill="url(#lc-bg)"/>
  <rect x="24" y="24" width="52" height="52" fill="none" stroke="rgba(124,58,237,0.18)" stroke-width="0.6" transform="rotate(45 50 50)"/>
  <g filter="url(#glow)">
    <path d="M22 68 L22 28 C22 22 20 18 16 16" fill="none" stroke="url(#lc-purple-cyan)" stroke-width="5.5" stroke-linecap="round"/>
    <path d="M22 68 L40 68" fill="none" stroke="url(#lc-purple-cyan)" stroke-width="5.5" stroke-linecap="round"/>
    <circle cx="14" cy="20" r="1.2" fill="#a78bfa" opacity="0.7"/>
    <circle cx="11" cy="26" r="0.9" fill="#8b5cf6" opacity="0.7"/>
    <circle cx="16" cy="32" r="1" fill="#c4b5fd" opacity="0.7"/>
    <path d="M40 68 C52 68 60 58 60 46 C60 34 52 24 40 24 C36 24 32 25 29 27" fill="none" stroke="url(#lc-glow)" stroke-width="5.5" stroke-linecap="round"/>
    <ellipse cx="24" cy="20" rx="5" ry="6" fill="url(#lc-purple-cyan)" opacity="0.95"/>
    <path d="M19 26 C20 29 23 30 26 29 C28 28 29 26 28 24" fill="url(#lc-purple-cyan)" opacity="0.85"/>
    <path d="M30 10 L26 18 L30 18 L27 26 L34 15 L30 15 L33 10 Z" fill="url(#lc-bolt)"/>
  </g>
</svg>
