<svg xmlns="http://www.w3.org/2000/svg" viewBox="0 0 320 80" width="320" height="80">
  <defs>
    <linearGradient id="lc-purple-cyan" x1="0%" y1="0%" x2="100%" y2="100%">
      <stop offset="0%" stop-color="#7c3aed"/>
      <stop offset="100%" stop-color="#22d3ee"/>
    </linearGradient>
    <linearGradient id="lc-glow" x1="0%" y1="100%" x2="100%" y2="0%">
      <stop offset="0%" stop-color="#6d28d9"/>
      <stop offset="100%" stop-color="#06b6d4"/>
    </linearGradient>
    <linearGradient id="lc-bolt" x1="0%" y1="0%" x2="100%" y2="100%">
      <stop offset="0%" stop-color="#38bdf8"/>
      <stop offset="100%" stop-color="#22d3ee"/>
    </linearGradient>
    <radialGradient id="lc-bg" cx="50%" cy="50%" r="70%">
      <stop offset="0%" stop-color="#12122a"/>
      <stop offset="100%" stop-color="#060618"/>
    </radialGradient>
  </defs>
  <!-- Icon -->
  <rect x="8" y="8" width="64" height="64" rx="16" fill="url(#lc-bg)"/>
  <rect x="30" y="30" width="20" height="20" fill="none" stroke="rgba(124,58,237,0.2)" stroke-width="0.5" transform="rotate(45 40 40)"/>
  <path d="M22 58 L22 30" fill="none" stroke="url(#lc-purple-cyan)" stroke-width="4" stroke-linecap="round"/>
  <path d="M22 58 L36 58" fill="none" stroke="url(#lc-purple-cyan)" stroke-width="4" stroke-linecap="round"/>
  <path d="M36 58 C46 58 52 50 52 40 C52 30 44 24 36 24" fill="none" stroke="url(#lc-glow)" stroke-width="4" stroke-linecap="round"/>
  <ellipse cx="24" cy="22" rx="4" ry="5" fill="url(#lc-purple-cyan)"/>
  <path d="M30 12 L27 18 L30 18 L28 24 L34 16 L30 16 L32 12 Z" fill="url(#lc-bolt)"/>
  <!-- Text -->
  <text x="88" y="38" font-family="system-ui, Inter, sans-serif" font-size="22" font-weight="700" fill="#e8eeff" letter-spacing="-0.5">LifeCoach AI</text>
  <text x="88" y="56" font-family="system-ui, Inter, sans-serif" font-size="10" font-weight="600" fill="rgba(167,139,250,0.7)" letter-spacing="2.5">HAN 4.2 ULTRA CORE</text>
</svg>
